<svg width="37" height="37" viewBox="0 0 37 37" fill="none" xmlns="http://www.w3.org/2000/svg">
<g clip-path="url(#clip0)">
<path d="M29.04 13.3309H26.5039V7.54394C26.5039 3.43953 23.0943 0.100372 18.9034 0.100372C14.7125 0.100372 11.3029 3.43953 11.3029 7.54394V13.3309H8.77198C6.44369 13.3309 4.54947 15.2251 4.54947 17.5534V31.9099C4.54947 34.2382 6.44369 36.1324 8.77198 36.1324H29.04C31.3683 36.1324 33.2625 34.2382 33.2625 31.9099V17.5534C33.2625 15.2251 31.3683 13.3309 29.04 13.3309ZM14.1179 7.54394C14.1179 4.99172 16.2647 2.91537 18.9034 2.91537C21.5421 2.91537 23.6889 4.99172 23.6889 7.54394V13.3309H14.1179V7.54394ZM30.4475 31.9099C30.4475 32.686 29.8161 33.3174 29.04 33.3174H8.77198C7.99588 33.3174 7.36448 32.686 7.36448 31.9099V17.5534C7.36448 16.7773 7.99588 16.1459 8.77198 16.1459H29.04C29.8161 16.1459 30.4475 16.7773 30.4475 17.5534V31.9099Z" fill="#131314"/>
<path d="M18.906 20.2276C17.4679 20.2276 16.3021 21.3934 16.3021 22.8315C16.3021 23.7498 16.7778 24.5564 17.4959 25.02V28.1096C17.4959 28.8869 18.126 29.5171 18.9034 29.5171C19.6807 29.5171 20.3109 28.8869 20.3109 28.1096V25.0233C21.0318 24.5603 21.5099 23.752 21.5099 22.8315C21.5099 21.3934 20.3441 20.2276 18.906 20.2276Z" fill="#131314"/>
</g>
<defs>
<clipPath id="clip0">
<rect width="36.032" height="36.032" fill="white" transform="translate(0.889954 0.100342)"/>
</clipPath>
</defs>
</svg>
