<svg width="44" height="43" viewBox="0 0 44 43" fill="none" xmlns="http://www.w3.org/2000/svg">
<g clip-path="url(#clip0)">
<path d="M26.2938 7.79163H14.5113C5.4782 7.79163 0.9374 14.6337 0.942301 21.4758C0.947201 28.3178 5.49771 35.1599 14.6471 35.1599H26.2939C26.8301 35.1599 27.3139 34.8394 27.5216 34.3448C30.8935 26.3354 31.0817 17.0631 27.5216 8.60657C27.3139 8.11214 26.83 7.79163 26.2938 7.79163ZM14.6471 32.4966C-0.12197 32.4966 -0.0378876 10.4549 14.5113 10.4549H19.7545C22.4818 17.5074 22.4818 25.4441 19.7545 32.4966H14.6471ZM22.5953 32.4966C25.0881 25.4395 25.1303 17.6317 22.5953 10.4549H25.3953C28.1226 17.5074 28.1226 25.4441 25.3953 32.4966H22.5953Z" fill="#131314"/>
<path d="M32.8931 10.4541H40.6292C42.3888 10.4541 42.3907 7.79082 40.6292 7.79082H32.8931C31.1335 7.79082 31.1316 10.4541 32.8931 10.4541Z" fill="#131314"/>
<path d="M34.7348 18.6893H42.4708C44.2304 18.6893 44.2323 16.026 42.4708 16.026H34.7348C32.9751 16.026 32.9733 18.6893 34.7348 18.6893Z" fill="#131314"/>
<path d="M42.4708 24.2611H34.7348C32.9751 24.2611 32.9733 26.9244 34.7348 26.9244H42.4708C44.2304 26.9244 44.2323 24.2611 42.4708 24.2611Z" fill="#131314"/>
<path d="M40.6292 32.4964H32.8931C31.1335 32.4964 31.1316 35.1597 32.8931 35.1597H40.6292C42.3889 35.1597 42.3907 32.4964 40.6292 32.4964Z" fill="#131314"/>
</g>
<defs>
<clipPath id="clip0">
<rect width="42.8489" height="42.8489" fill="white" transform="translate(0.942322 0.0507812)"/>
</clipPath>
</defs>
</svg>
