<svg width="35" height="41" viewBox="0 0 35 41" fill="none" xmlns="http://www.w3.org/2000/svg">
<path d="M34.3779 30.5026C34.215 29.6332 33.3782 29.0604 32.5087 29.2234C31.6394 29.3864 31.0666 30.2232 31.2295 31.0925C31.3504 31.7375 31.0668 32.1972 30.8871 32.4138C30.7078 32.6298 30.3094 32.9922 29.6555 32.9922H5.34445C4.69061 32.9922 4.29214 32.6298 4.11284 32.4138C3.93315 32.1972 3.64959 31.7375 3.77051 31.0925C4.22479 28.6684 5.13632 27.0739 6.01782 25.5319C7.08839 23.6594 8.19539 21.723 8.19539 18.7382V16.3359C8.19539 11.2856 12.3004 7.12111 17.3485 7.04784H17.6513C22.6822 7.12095 26.7736 11.2854 26.7736 16.3359V18.7383C26.7736 21.2786 27.6046 23.0266 28.3835 24.4657C28.6734 25.0013 29.2243 25.3052 29.7933 25.3052C30.0508 25.3052 30.312 25.243 30.5542 25.1119C31.3322 24.6909 31.6214 23.7189 31.2004 22.9411C30.4254 21.5091 29.9767 20.3623 29.9767 18.7383V16.3359C29.9767 13.0398 28.7 9.92672 26.3817 7.57011C24.395 5.55045 21.8439 4.29011 19.0861 3.94225V1.60156C19.0861 0.71702 18.3691 0 17.4845 0C16.6 0 15.883 0.71702 15.883 1.60156V3.94697C9.76035 4.74135 4.99234 10.0243 4.99234 16.3359V18.7383C4.99234 20.8721 4.21775 22.227 3.23711 23.9422C2.27105 25.6322 1.17598 27.5476 0.622158 30.5026C0.35782 31.9132 0.731785 33.3554 1.6482 34.4595C2.56373 35.5627 3.91105 36.1953 5.34445 36.1953H12.7108C12.7108 38.8446 14.8661 41 17.5154 41C20.1647 41 22.3201 38.8446 22.3201 36.1953H29.6555C31.0889 36.1953 32.4362 35.5627 33.3518 34.4595C34.2682 33.3555 34.6422 31.9132 34.3779 30.5026ZM17.5154 37.7969C16.6323 37.7969 15.9139 37.0784 15.9139 36.1953H19.117C19.117 37.0784 18.3986 37.7969 17.5154 37.7969Z" fill="#56565A"/>
</svg>
