<svg width="41" height="43" viewBox="0 0 41 43" fill="none" xmlns="http://www.w3.org/2000/svg">
<path d="M9.73134 17.3708H19.1617C20.6654 17.3708 22.2292 17.3839 23.534 18.1312C24.9361 18.9341 26.2985 20.4149 26.2985 22.8931C26.2985 24.7589 25.5263 26.1321 24.5464 27.096C22.8239 28.7903 20.1992 28.8757 17.7832 28.8757H7.24627C5.49751 29.1212 2 30.6429 2 34.7663C2 38.8897 5.49751 39.9819 7.24627 40.0125H28.5995" stroke="#56565A" stroke-width="3"/>
<rect x="26.9428" y="38.6319" width="2.76119" height="2.76119" rx="1.3806" fill="#56565A"/>
<rect x="26.9428" y="38.6319" width="2.76119" height="2.76119" rx="1.3806" fill="#56565A"/>
<rect x="26.9428" y="38.6319" width="2.76119" height="2.76119" rx="1.3806" fill="#56565A"/>
<rect x="8.44281" y="15.9901" width="2.76119" height="2.76119" rx="1.3806" fill="#56565A"/>
<rect x="8.44281" y="15.9901" width="2.76119" height="2.76119" rx="1.3806" fill="#56565A"/>
<rect x="8.44281" y="15.9901" width="2.76119" height="2.76119" rx="1.3806" fill="#56565A"/>
<path d="M10.5597 6.23386C10.5597 8.60814 8.42437 11.0345 7.10462 12.3614C6.92005 12.5469 6.63071 12.5735 6.42145 12.4163C4.94019 11.3037 2.55225 8.87519 2.55225 6.23386C2.55225 2.64431 5.77364 2.00003 6.78608 2.00003C7.79851 2.00003 10.5597 3.01247 10.5597 6.23386Z" stroke="#56565A" stroke-width="3"/>
<path d="M39 34.398C39 36.7722 36.8646 39.1986 35.5449 40.5255C35.3603 40.711 35.071 40.7376 34.8617 40.5804C33.3804 39.4678 30.9925 37.0393 30.9925 34.398C30.9925 30.8084 34.2139 30.1641 35.2263 30.1641C36.2388 30.1641 39 31.1766 39 34.398Z" stroke="#56565A" stroke-width="3"/>
</svg>
