<svg width="33" height="38" viewBox="0 0 33 38" fill="none" xmlns="http://www.w3.org/2000/svg">
<path d="M31.1186 6.0664L16.9523 0.184714C16.5975 0.0374131 16.1986 0.0373408 15.8437 0.184714L1.67744 6.0664C1.13789 6.29046 0.786194 6.81722 0.786194 7.40143V14.5514C0.786194 24.3965 6.73669 33.2524 15.8518 36.9729C16.2019 37.1158 16.5941 37.1158 16.9443 36.9729C26.0592 33.2525 32.0099 24.3966 32.0099 14.5514V7.40143C32.0099 6.81722 31.6583 6.29046 31.1186 6.0664ZM29.1188 14.5514C29.1188 22.9208 24.204 30.6253 16.398 34.0644C8.80071 30.7171 3.67728 23.1476 3.67728 14.5514V8.36648L16.398 3.0849L29.1188 8.36648V14.5514ZM14.8003 19.4239L21.0135 13.2108C21.578 12.6463 22.4932 12.6462 23.0578 13.2108C23.6223 13.7753 23.6223 14.6906 23.0577 15.2551L15.8224 22.4904C15.2578 23.055 14.3426 23.0548 13.7781 22.4904L9.73829 18.4505C9.17373 17.8859 9.17373 16.9707 9.73829 16.4062C10.3028 15.8417 11.2181 15.8417 11.7826 16.4062L14.8003 19.4239Z" fill="#131314"/>
</svg>
