<svg width="19" height="18" viewBox="0 0 19 18" fill="none" xmlns="http://www.w3.org/2000/svg">
<path d="M8.10222 1.85649C8.56397 0.501477 10.4804 0.501478 10.9421 1.85649L12.0724 5.1732C12.2795 5.78091 12.8503 6.18946 13.4923 6.18946H16.9921C18.4626 6.18946 19.0552 8.08539 17.8464 8.92275L15.1398 10.7977C14.5889 11.1794 14.3579 11.8803 14.5741 12.5147L15.6366 15.6326C16.1034 17.0023 14.5518 18.1736 13.3624 17.3497L10.3764 15.2811C9.86257 14.9252 9.1818 14.9252 8.66792 15.2811L5.68196 17.3497C4.49252 18.1736 2.94101 17.0023 3.40773 15.6326L4.47022 12.5147C4.68642 11.8803 4.4555 11.1794 3.90452 10.7977L1.19797 8.92275C-0.0107875 8.08539 0.581768 6.18946 2.05223 6.18946H5.55203C6.19405 6.18946 6.7649 5.78091 6.97199 5.1732L8.10222 1.85649Z" fill="#4865FF"/>
</svg>
