<svg width="38" height="41" viewBox="0 0 38 41" fill="none" xmlns="http://www.w3.org/2000/svg">
<ellipse cx="21.5" cy="16" rx="16.5" ry="16" fill="#9AAAFF"/>
<path d="M25.9656 7.61609C25.1643 7.26599 24.2309 7.63182 23.8808 8.43317C23.5307 9.23451 23.8965 10.1679 24.6979 10.518C29.8496 12.7686 33.25 17.864 33.25 23.5832C33.25 31.453 26.8692 37.8333 18.9999 37.8333C11.1295 37.8333 4.7498 31.4536 4.7498 23.5832C4.7498 17.8653 8.14905 12.7699 13.2993 10.5178C14.1005 10.1674 14.466 9.23392 14.1156 8.43272C13.7653 7.63152 12.8318 7.26599 12.0306 7.61638C5.73759 10.3681 1.58316 16.5955 1.58316 23.5831C1.58316 33.2024 9.38072 40.9999 19 40.9999C28.6182 40.9999 36.4168 33.2019 36.4168 23.5831C36.4168 16.5939 32.2607 10.3661 25.9656 7.61609Z" fill="#131314"/>
<path d="M18.9993 20.4168C19.8738 20.4168 20.5827 19.708 20.5827 18.8335V4.5834C20.5827 3.70887 19.8738 3 18.9993 3C18.1249 3 17.416 3.70887 17.416 4.58332V18.8334C17.416 19.7079 18.1249 20.4168 18.9993 20.4168Z" fill="#131314"/>
</svg>
