<svg width="28" height="32" viewBox="0 0 28 32" fill="none" xmlns="http://www.w3.org/2000/svg">
<path d="M27.4741 32H24.2317C24.2317 26.5299 19.6435 22.0813 14 22.0813C8.35649 22.0813 3.77 26.5316 3.77 32H0.527527C0.527527 24.7401 6.57312 18.8388 14.0016 18.8388C21.4285 18.8388 27.4741 24.7401 27.4741 32Z" fill="#56565A"/>
<path d="M14.0016 17.785C9.10065 17.785 5.11078 13.7935 5.11078 8.89249C5.10916 3.98987 9.09902 0 14.0016 0C18.9059 0 22.8958 3.98825 22.8958 8.89249C22.8958 13.7967 18.9059 17.785 14.0016 17.785ZM14.0016 3.24248C10.8856 3.24248 8.35163 5.77647 8.35163 8.89249C8.35163 12.0085 10.8856 14.5425 14.0016 14.5425C17.1193 14.5425 19.6533 12.0085 19.6533 8.89249C19.6533 5.77647 17.116 3.24248 14.0016 3.24248Z" fill="#56565A"/>
</svg>
